<svg width="734" height="635" viewBox="0 0 734 635" fill="none" xmlns="http://www.w3.org/2000/svg">
<path d="M349.624 50C357.322 36.6667 376.567 36.6667 384.265 50L515.468 277.25C523.166 290.583 513.544 307.25 498.148 307.25H235.742C220.346 307.25 210.724 290.583 218.422 277.25L349.624 50Z" fill="white"/>
<path d="M384.265 605C376.567 618.333 357.322 618.333 349.624 605L218.421 377.75C210.723 364.417 220.346 347.75 235.742 347.75L498.148 347.75C513.544 347.75 523.166 364.417 515.468 377.75L384.265 605Z" fill="white"/>
<path d="M585.164 257.25C577.466 270.583 558.221 270.583 550.523 257.25L419.32 30.0001C411.622 16.6667 421.245 2.73146e-05 436.641 2.59686e-05L699.047 3.02842e-06C714.443 1.68245e-06 724.065 16.6667 716.367 30L585.164 257.25Z" fill="white"/>
<path d="M183.164 257.25C175.466 270.583 156.221 270.583 148.523 257.25L17.3205 30.0001C9.62249 16.6667 19.245 2.73146e-05 34.641 2.59686e-05L297.047 3.02842e-06C312.443 1.68245e-06 322.065 16.6667 314.367 30L183.164 257.25Z" fill="white"/>
</svg>
