<svg width="187" height="29" viewBox="0 0 187 29" fill="none" xmlns="http://www.w3.org/2000/svg">
<path d="M20.0643 28V7.32H11.8643V0H37.7043V7.32H29.5043V28H20.0643Z" fill="#E6007E"/>
<path d="M0 28V0H9.44V28H0Z" fill="#E6007E"/>
<path d="M178.734 7.93687C180.349 7.93687 181.765 8.24739 182.982 8.86843C184.224 9.48948 185.193 10.4335 185.888 11.7004C186.584 12.9673 186.932 14.5696 186.932 16.5073V27.8724H183.355V16.9172C183.355 15.0043 182.883 13.5635 181.939 12.5947C181.019 11.6259 179.715 11.1415 178.026 11.1415C176.759 11.1415 175.654 11.3899 174.71 11.8867C173.766 12.3835 173.033 13.1164 172.511 14.0852C172.014 15.054 171.766 16.2588 171.766 17.6997V27.8724H168.189V0.223511H171.766V13.4517L171.058 12.0358C171.704 10.744 172.698 9.73789 174.039 9.01748C175.38 8.29707 176.945 7.93687 178.734 7.93687Z" fill="white"/>
<path d="M155.763 28.096C153.751 28.096 151.95 27.6612 150.36 26.7918C148.795 25.9223 147.566 24.7299 146.671 23.2146C145.777 21.6992 145.33 19.9603 145.33 17.9978C145.33 16.0353 145.777 14.2964 146.671 12.781C147.566 11.2657 148.795 10.0857 150.36 9.24108C151.95 8.37162 153.751 7.93689 155.763 7.93689C157.552 7.93689 159.142 8.29709 160.533 9.0175C161.949 9.71307 163.042 10.7564 163.812 12.1476L161.092 13.8989C160.446 12.9301 159.651 12.2221 158.707 11.7749C157.788 11.3029 156.794 11.0669 155.726 11.0669C154.434 11.0669 153.279 11.3526 152.261 11.924C151.242 12.4953 150.435 13.3027 149.839 14.3461C149.243 15.3646 148.944 16.5818 148.944 17.9978C148.944 19.4138 149.243 20.6434 149.839 21.6868C150.435 22.7301 151.242 23.5375 152.261 24.1089C153.279 24.6802 154.434 24.9659 155.726 24.9659C156.794 24.9659 157.788 24.7423 158.707 24.2952C159.651 23.8232 160.446 23.1028 161.092 22.1339L163.812 23.848C163.042 25.2143 161.949 26.2701 160.533 27.0153C159.142 27.7358 157.552 28.096 155.763 28.096Z" fill="white"/>
<path d="M137.145 27.8724V23.699L136.959 22.9165V15.7993C136.959 14.284 136.511 13.1164 135.617 12.2966C134.748 11.452 133.431 11.0297 131.667 11.0297C130.5 11.0297 129.357 11.2284 128.239 11.6259C127.121 11.9985 126.177 12.5078 125.407 13.1537L123.917 10.4707C124.935 9.65097 126.152 9.02993 127.568 8.60762C129.009 8.16046 130.512 7.93689 132.077 7.93689C134.785 7.93689 136.872 8.59519 138.337 9.91181C139.803 11.2284 140.536 13.2406 140.536 15.9483V27.8724H137.145ZM130.661 28.096C129.195 28.096 127.904 27.8475 126.786 27.3507C125.693 26.8539 124.848 26.1707 124.252 25.3013C123.656 24.407 123.358 23.4009 123.358 22.283C123.358 21.2148 123.606 20.246 124.103 19.3765C124.625 18.507 125.457 17.8115 126.6 17.2898C127.767 16.7681 129.332 16.5073 131.295 16.5073H137.555V19.0784H131.444C129.655 19.0784 128.45 19.3765 127.829 19.9727C127.208 20.5689 126.898 21.2893 126.898 22.1339C126.898 23.1028 127.283 23.8853 128.053 24.4815C128.823 25.0528 129.891 25.3385 131.257 25.3385C132.599 25.3385 133.766 25.0404 134.76 24.4442C135.779 23.848 136.511 22.9786 136.959 21.8358L137.667 24.2952C137.195 25.4627 136.362 26.3943 135.17 27.0899C133.978 27.7606 132.475 28.096 130.661 28.096Z" fill="white"/>
<path d="M104.09 13.0419H117.504V16.2092H104.09V13.0419ZM104.425 24.6306H119.628V27.8724H100.699V1.78857H119.107V5.03042H104.425V24.6306Z" fill="white"/>
<path d="M85.3303 27.8724V8.1232H88.7585V13.489L88.4231 12.1476C88.9696 10.7813 89.8888 9.73791 91.1806 9.0175C92.4723 8.29709 94.0622 7.93689 95.9502 7.93689V11.4023C95.8011 11.3775 95.6521 11.365 95.503 11.365C95.3788 11.365 95.2546 11.365 95.1304 11.365C93.2176 11.365 91.7022 11.9364 90.5844 13.0791C89.4665 14.2218 88.9075 15.8738 88.9075 18.0351V27.8724H85.3303Z" fill="white"/>
<path d="M70.136 28.096C68.1487 28.096 66.3849 27.6612 64.8448 26.7918C63.3046 25.9223 62.0873 24.7299 61.193 23.2146C60.2987 21.6744 59.8516 19.9354 59.8516 17.9978C59.8516 16.0353 60.2987 14.2964 61.193 12.781C62.0873 11.2657 63.3046 10.0857 64.8448 9.24108C66.3849 8.37162 68.1487 7.93689 70.136 7.93689C72.0985 7.93689 73.8499 8.37162 75.3901 9.24108C76.9551 10.0857 78.1723 11.2657 79.0418 12.781C79.9361 14.2715 80.3833 16.0105 80.3833 17.9978C80.3833 19.9603 79.9361 21.6992 79.0418 23.2146C78.1723 24.7299 76.9551 25.9223 75.3901 26.7918C73.8499 27.6612 72.0985 28.096 70.136 28.096ZM70.136 24.9659C71.403 24.9659 72.5333 24.6802 73.5269 24.1089C74.5454 23.5375 75.3404 22.7301 75.9117 21.6868C76.4831 20.6186 76.7688 19.3889 76.7688 17.9978C76.7688 16.5818 76.4831 15.3646 75.9117 14.3461C75.3404 13.3027 74.5454 12.4953 73.5269 11.924C72.5333 11.3526 71.403 11.0669 70.136 11.0669C68.8691 11.0669 67.7388 11.3526 66.7451 11.924C65.7515 12.4953 64.9565 13.3027 64.3603 14.3461C63.7641 15.3646 63.466 16.5818 63.466 17.9978C63.466 19.3889 63.7641 20.6186 64.3603 21.6868C64.9565 22.7301 65.7515 23.5375 66.7451 24.1089C67.7388 24.6802 68.8691 24.9659 70.136 24.9659Z" fill="white"/>
<path d="M49.3536 27.8724V6.3719C49.3536 4.43425 49.9126 2.89406 51.0305 1.75134C52.1732 0.583781 53.7879 0 55.8746 0C56.6447 0 57.3775 0.0993671 58.0731 0.298101C58.7935 0.471993 59.4021 0.757673 59.899 1.15514L58.8183 3.87531C58.4457 3.57721 58.0234 3.35363 57.5514 3.20458C57.0794 3.03069 56.5826 2.94375 56.0609 2.94375C55.0175 2.94375 54.2226 3.24185 53.6761 3.83805C53.1296 4.40941 52.8563 5.26645 52.8563 6.40917V9.05481L52.9308 10.6944V27.8724H49.3536ZM46 11.067V8.12325H58.5948V11.067H46Z" fill="white"/>
</svg>
