<svg width="225" height="58" viewBox="0 0 225 58" fill="none" xmlns="http://www.w3.org/2000/svg">
<rect width="225" height="58" fill="#1F1F1F"/>
<path d="M39.0643 43V22.32H30.8643V15H56.7043V22.32H48.5043V43H39.0643Z" fill="#DA007F"/>
<path d="M19 43V15H28.44V43H19Z" fill="#DA007F"/>
<path d="M197.734 22.9369C199.349 22.9369 200.765 23.2474 201.982 23.8684C203.224 24.4895 204.193 25.4335 204.888 26.7004C205.584 27.9673 205.932 29.5696 205.932 31.5073V42.8724H202.355V31.9172C202.355 30.0043 201.883 28.5635 200.939 27.5947C200.019 26.6259 198.715 26.1415 197.026 26.1415C195.759 26.1415 194.654 26.3899 193.71 26.8867C192.766 27.3835 192.033 28.1164 191.511 29.0852C191.014 30.054 190.766 31.2588 190.766 32.6997V42.8724H187.189V15.2235H190.766V28.4517L190.058 27.0358C190.704 25.744 191.698 24.7379 193.039 24.0175C194.38 23.2971 195.945 22.9369 197.734 22.9369Z" fill="white"/>
<path d="M174.763 43.096C172.751 43.096 170.95 42.6612 169.36 41.7918C167.795 40.9223 166.566 39.7299 165.671 38.2146C164.777 36.6992 164.33 34.9603 164.33 32.9978C164.33 31.0353 164.777 29.2964 165.671 27.781C166.566 26.2657 167.795 25.0857 169.36 24.2411C170.95 23.3716 172.751 22.9369 174.763 22.9369C176.552 22.9369 178.142 23.2971 179.533 24.0175C180.949 24.7131 182.042 25.7564 182.812 27.1476L180.092 28.8989C179.446 27.9301 178.651 27.2221 177.707 26.7749C176.788 26.3029 175.794 26.0669 174.726 26.0669C173.434 26.0669 172.279 26.3526 171.261 26.924C170.242 27.4953 169.435 28.3027 168.839 29.3461C168.243 30.3646 167.944 31.5818 167.944 32.9978C167.944 34.4138 168.243 35.6434 168.839 36.6868C169.435 37.7301 170.242 38.5375 171.261 39.1089C172.279 39.6802 173.434 39.9659 174.726 39.9659C175.794 39.9659 176.788 39.7423 177.707 39.2952C178.651 38.8232 179.446 38.1028 180.092 37.1339L182.812 38.848C182.042 40.2143 180.949 41.2701 179.533 42.0153C178.142 42.7358 176.552 43.096 174.763 43.096Z" fill="white"/>
<path d="M156.145 42.8724V38.699L155.959 37.9165V30.7993C155.959 29.284 155.511 28.1164 154.617 27.2966C153.748 26.452 152.431 26.0297 150.667 26.0297C149.5 26.0297 148.357 26.2284 147.239 26.6259C146.121 26.9985 145.177 27.5078 144.407 28.1537L142.917 25.4707C143.935 24.651 145.152 24.0299 146.568 23.6076C148.009 23.1605 149.512 22.9369 151.077 22.9369C153.785 22.9369 155.872 23.5952 157.337 24.9118C158.803 26.2284 159.536 28.2406 159.536 30.9483V42.8724H156.145ZM149.661 43.096C148.195 43.096 146.904 42.8475 145.786 42.3507C144.693 41.8539 143.848 41.1707 143.252 40.3013C142.656 39.407 142.358 38.4009 142.358 37.283C142.358 36.2148 142.606 35.246 143.103 34.3765C143.625 33.507 144.457 32.8115 145.6 32.2898C146.767 31.7681 148.332 31.5073 150.295 31.5073H156.555V34.0784H150.444C148.655 34.0784 147.45 34.3765 146.829 34.9727C146.208 35.5689 145.898 36.2893 145.898 37.1339C145.898 38.1028 146.283 38.8853 147.053 39.4815C147.823 40.0528 148.891 40.3385 150.257 40.3385C151.599 40.3385 152.766 40.0404 153.76 39.4442C154.779 38.848 155.511 37.9786 155.959 36.8358L156.667 39.2952C156.195 40.4627 155.362 41.3943 154.17 42.0899C152.978 42.7606 151.475 43.096 149.661 43.096Z" fill="white"/>
<path d="M123.09 28.0419H136.504V31.2092H123.09V28.0419ZM123.425 39.6306H138.628V42.8724H119.699V16.7886H138.107V20.0304H123.425V39.6306Z" fill="white"/>
<path d="M104.33 42.8724V23.1232H107.758V28.489L107.423 27.1476C107.97 25.7813 108.889 24.7379 110.181 24.0175C111.472 23.2971 113.062 22.9369 114.95 22.9369V26.4023C114.801 26.3775 114.652 26.365 114.503 26.365C114.379 26.365 114.255 26.365 114.13 26.365C112.218 26.365 110.702 26.9364 109.584 28.0791C108.466 29.2218 107.908 30.8738 107.908 33.0351V42.8724H104.33Z" fill="white"/>
<path d="M89.136 43.096C87.1487 43.096 85.3849 42.6612 83.8448 41.7918C82.3046 40.9223 81.0873 39.7299 80.193 38.2146C79.2987 36.6744 78.8516 34.9354 78.8516 32.9978C78.8516 31.0353 79.2987 29.2964 80.193 27.781C81.0873 26.2657 82.3046 25.0857 83.8448 24.2411C85.3849 23.3716 87.1487 22.9369 89.136 22.9369C91.0985 22.9369 92.8499 23.3716 94.3901 24.2411C95.9551 25.0857 97.1723 26.2657 98.0418 27.781C98.9361 29.2715 99.3833 31.0105 99.3833 32.9978C99.3833 34.9603 98.9361 36.6992 98.0418 38.2146C97.1723 39.7299 95.9551 40.9223 94.3901 41.7918C92.8499 42.6612 91.0985 43.096 89.136 43.096ZM89.136 39.9659C90.403 39.9659 91.5333 39.6802 92.5269 39.1089C93.5454 38.5375 94.3404 37.7301 94.9117 36.6868C95.4831 35.6186 95.7688 34.3889 95.7688 32.9978C95.7688 31.5818 95.4831 30.3646 94.9117 29.3461C94.3404 28.3027 93.5454 27.4953 92.5269 26.924C91.5333 26.3526 90.403 26.0669 89.136 26.0669C87.8691 26.0669 86.7388 26.3526 85.7451 26.924C84.7515 27.4953 83.9565 28.3027 83.3603 29.3461C82.7641 30.3646 82.466 31.5818 82.466 32.9978C82.466 34.3889 82.7641 35.6186 83.3603 36.6868C83.9565 37.7301 84.7515 38.5375 85.7451 39.1089C86.7388 39.6802 87.8691 39.9659 89.136 39.9659Z" fill="white"/>
<path d="M68.3536 42.8724V21.3719C68.3536 19.4342 68.9126 17.8941 70.0305 16.7513C71.1732 15.5838 72.7879 15 74.8746 15C75.6447 15 76.3775 15.0994 77.0731 15.2981C77.7935 15.472 78.4021 15.7577 78.899 16.1551L77.8183 18.8753C77.4457 18.5772 77.0234 18.3536 76.5514 18.2046C76.0794 18.0307 75.5826 17.9437 75.0609 17.9437C74.0175 17.9437 73.2226 18.2418 72.6761 18.838C72.1296 19.4094 71.8563 20.2664 71.8563 21.4092V24.0548L71.9308 25.6944V42.8724H68.3536ZM65 26.067V23.1232H77.5948V26.067H65Z" fill="white"/>
</svg>
